# xmcd
#
# Track frame offsets: 
#        150
#        17689
#        37558
#        59840
#        78240
#        108832
#        126883
#        147106
#        169225
#        195868
#        212540
#        235444
#        253999
#        281833
#
# Disc length: 4075 seconds
#
# Revision: 0
# Processed by: cddbd v1.5.2PL0 Copyright (c) Steve Scherf et al.
# Submitted via: ExactAudioCopy v1.0b3
#
DISCID=c00fe90e
DTITLE=Taylor Swift - Speak Now
DYEAR=1900
DGENRE=Country
TTITLE0=Mine
TTITLE1=Sparks fly
TTITLE2=Back to December
TTITLE3=Speak now
TTITLE4=Dear John
TTITLE5=Mean
TTITLE6=The story of us
TTITLE7=Never grow up
TTITLE8=Enchanted
TTITLE9=Better than revenge
TTITLE10=Innocent
TTITLE11=Haunted
TTITLE12=Last kiss
TTITLE13=Long live
EXTD=
EXTT0=
EXTT1=
EXTT2=
EXTT3=
EXTT4=
EXTT5=
EXTT6=
EXTT7=
EXTT8=
EXTT9=
EXTT10=
EXTT11=
EXTT12=
EXTT13=
PLAYORDER=
